<svg xmlns="http://www.w3.org/2000/svg" version="1.1" xmlns:xlink="http://www.w3.org/1999/xlink" xmlns:svgjs="http://svgjs.dev/svgjs" width="1500" height="375" viewBox="0 0 1500 375"><g transform="matrix(1,0,0,1,-0.9090909090909918,0.2068654437318571)"><svg viewBox="0 0 396 99" data-background-color="#ffffff" preserveAspectRatio="xMidYMid meet" height="375" width="1500" xmlns="http://www.w3.org/2000/svg" xmlns:xlink="http://www.w3.org/1999/xlink"><g id="tight-bounds" transform="matrix(1,0,0,1,0.2400000000000091,-0.05461247714521278)"><svg viewBox="0 0 395.52 98.10922495429044" height="98.10922495429044" width="395.52"><g><svg viewBox="0 0 395.52 98.10922495429044" height="98.10922495429044" width="395.52"><g><svg viewBox="0 0 395.52 98.10922495429044" height="98.10922495429044" width="395.52"><g id="textblocktransform"><svg viewBox="0 0 395.52 98.10922495429044" height="98.10922495429044" width="395.52" id="textblock"><g><rect width="395.52" height="79.91454437043153" fill="none" stroke-width="8.962371322224001" stroke="#130912" data-fill-palette-color="none" data-stroke-palette-color="tertiary"></rect><rect width="395.52" height="19.19468058385891" y="79.91454437043153" fill="#130912" data-fill-palette-color="tertiary"></rect></g><g><svg viewBox="0 0 395.52 78.91454437043153" height="78.91454437043153" width="395.52"><g transform="matrix(1,0,0,1,23.461705032,23.461705032)"><svg width="348.596589936" viewBox="3.64 -37.55 414.45 38.04" height="31.991134306431523" data-palette-color="#000000"><path d="M38.62-20.36L38.62-14.65Q38.62-11.45 37.51-8.76 36.4-6.08 34.45-4.14 32.5-2.2 29.81-1.1 27.12 0 23.97 0L23.97 0 6.84 0Q6.15 0 5.57-0.24 4.98-0.49 4.55-0.92 4.13-1.34 3.88-1.93 3.64-2.51 3.64-3.2L3.64-3.2 3.64-31.81Q3.64-32.47 3.88-33.06 4.13-33.64 4.55-34.08 4.98-34.52 5.57-34.77 6.15-35.01 6.84-35.01L6.84-35.01 23.97-35.01Q27.12-35.01 29.81-33.91 32.5-32.81 34.45-30.87 36.4-28.93 37.51-26.23 38.62-23.54 38.62-20.36L38.62-20.36ZM32.28-14.65L32.28-20.36Q32.28-22.22 31.68-23.75 31.08-25.29 29.98-26.38 28.88-27.47 27.36-28.06 25.83-28.66 23.97-28.66L23.97-28.66 9.99-28.66 9.99-6.35 23.97-6.35Q25.83-6.35 27.36-6.95 28.88-7.54 29.98-8.63 31.08-9.72 31.68-11.24 32.28-12.77 32.28-14.65L32.28-14.65ZM72.53-17.65L72.53-17.65Q72.53-16.33 72.07-14.81 71.6-13.28 70.57-11.98 69.53-10.67 67.86-9.79 66.18-8.91 63.79-8.91L63.79-8.91 52.34-8.91 52.34-14.94 63.79-14.94Q65.09-14.94 65.79-15.73 66.5-16.53 66.5-17.7L66.5-17.7Q66.5-18.95 65.71-19.65 64.91-20.36 63.79-20.36L63.79-20.36 52.34-20.36Q51.05-20.36 50.34-19.57 49.63-18.77 49.63-17.6L49.63-17.6 49.63-8.74Q49.63-7.47 50.42-6.76 51.22-6.05 52.39-6.05L52.39-6.05 63.79-6.05 63.79 0 52.34 0Q51.02 0 49.5-0.46 47.97-0.93 46.66-1.97 45.36-3 44.48-4.68 43.6-6.35 43.6-8.74L43.6-8.74 43.6-17.65Q43.6-18.97 44.06-20.5 44.53-22.02 45.57-23.33 46.6-24.63 48.28-25.51 49.95-26.39 52.34-26.39L52.34-26.39 63.79-26.39Q65.11-26.39 66.64-25.93 68.16-25.46 69.47-24.43 70.77-23.39 71.65-21.72 72.53-20.04 72.53-17.65ZM101.56-26.39L108.3-26.39Q107.22-23.05 105.78-19.8 104.34-16.55 102.47-13.61 100.61-10.67 98.3-8.17 95.99-5.66 93.2-3.85 90.4-2.03 87.12-0.99 83.83 0.05 80 0.05L80 0.05Q79.34 0.05 78.75-0.2 78.17-0.44 77.73-0.87 77.29-1.29 77.05-1.87 76.8-2.44 76.8-3.1L76.8-3.1 76.8-26.39 83.15-26.39 83.15-6.54Q85.47-6.54 87.6-7.54 89.74-8.54 91.65-10.19 93.55-11.84 95.17-13.94 96.8-16.04 98.07-18.25 99.34-20.46 100.23-22.58 101.12-24.71 101.56-26.39L101.56-26.39ZM142.62-6.35L142.62 0 119.72 0Q118.84 0 117.83-0.21 116.81-0.42 115.83-0.85 114.84-1.29 113.93-1.99 113.03-2.69 112.33-3.67 111.64-4.66 111.22-5.97 110.81-7.28 110.81-8.91L110.81-8.91 110.81-26.1Q110.81-26.98 111.02-27.99 111.22-29 111.66-29.99 112.1-30.98 112.81-31.88 113.52-32.79 114.51-33.48 115.5-34.18 116.79-34.59 118.08-35.01 119.72-35.01L119.72-35.01 142.62-35.01 142.62-28.66 119.72-28.66Q118.47-28.66 117.81-28 117.16-27.34 117.16-26.05L117.16-26.05 117.16-8.91Q117.16-7.69 117.83-7.02 118.5-6.35 119.72-6.35L119.72-6.35 142.62-6.35ZM176.31-17.5L176.31-8.91Q176.31-7.28 175.89-5.97 175.48-4.66 174.79-3.67 174.11-2.69 173.21-1.99 172.3-1.29 171.32-0.85 170.33-0.42 169.31-0.21 168.3 0 167.4 0L167.4 0 155.95 0Q154.63 0 153.07-0.46 151.5-0.93 150.17-1.99 148.84-3.05 147.95-4.75 147.06-6.45 147.06-8.91L147.06-8.91 147.06-17.5Q147.06-19.95 147.95-21.64 148.84-23.34 150.17-24.4 151.5-25.46 153.07-25.93 154.63-26.39 155.95-26.39L155.95-26.39 167.4-26.39Q169.84-26.39 171.55-25.51 173.26-24.63 174.31-23.3 175.36-21.97 175.83-20.41 176.31-18.85 176.31-17.5L176.31-17.5ZM169.96-8.91L169.96-17.46Q169.96-18.77 169.3-19.41 168.64-20.04 167.4-20.04L167.4-20.04 156-20.04Q154.73-20.04 154.07-19.4 153.41-18.75 153.41-17.5L153.41-17.5 153.41-8.91Q153.41-7.67 154.07-7.01 154.73-6.35 156-6.35L156-6.35 167.4-6.35Q168.69-6.35 169.33-7.01 169.96-7.67 169.96-8.91L169.96-8.91ZM210.66-37.55L210.66-8.91Q210.66-7.28 210.24-5.97 209.83-4.66 209.14-3.67 208.46-2.69 207.56-1.99 206.65-1.29 205.66-0.85 204.68-0.42 203.66-0.21 202.65 0 201.75 0L201.75 0 190.3 0Q188.66 0 187.37-0.42 186.07-0.83 185.08-1.53 184.09-2.22 183.4-3.13 182.7-4.03 182.26-5.02 181.82-6.01 181.62-7.02 181.41-8.03 181.41-8.91L181.41-8.91 181.41-17.5Q181.41-19.95 182.3-21.64 183.19-23.34 184.52-24.4 185.85-25.46 187.41-25.93 188.98-26.39 190.3-26.39L190.3-26.39 201.75-26.39 201.75-20.04 190.34-20.04Q189.07-20.04 188.42-19.4 187.76-18.75 187.76-17.5L187.76-17.5 187.76-8.96Q187.76-7.67 188.4-7.01 189.05-6.35 190.3-6.35L190.3-6.35 201.75-6.35Q203.04-6.35 203.67-7.01 204.31-7.67 204.31-8.91L204.31-8.91 204.31-37.55 210.66-37.55ZM245.1-17.65L245.1-17.65Q245.1-16.33 244.64-14.81 244.17-13.28 243.14-11.98 242.1-10.67 240.43-9.79 238.75-8.91 236.36-8.91L236.36-8.91 224.91-8.91 224.91-14.94 236.36-14.94Q237.66-14.94 238.36-15.73 239.07-16.53 239.07-17.7L239.07-17.7Q239.07-18.95 238.28-19.65 237.49-20.36 236.36-20.36L236.36-20.36 224.91-20.36Q223.62-20.36 222.91-19.57 222.2-18.77 222.2-17.6L222.2-17.6 222.2-8.74Q222.2-7.47 223-6.76 223.79-6.05 224.96-6.05L224.96-6.05 236.36-6.05 236.36 0 224.91 0Q223.59 0 222.07-0.46 220.54-0.93 219.24-1.97 217.93-3 217.05-4.68 216.17-6.35 216.17-8.74L216.17-8.74 216.17-17.65Q216.17-18.97 216.64-20.5 217.1-22.02 218.14-23.33 219.17-24.63 220.85-25.51 222.52-26.39 224.91-26.39L224.91-26.39 236.36-26.39Q237.68-26.39 239.21-25.93 240.73-25.46 242.04-24.43 243.34-23.39 244.22-21.72 245.1-20.04 245.1-17.65ZM285.07-35.01L285.07-2.71Q285.07-2.03 284.81-1.44 284.55-0.85 284.13-0.43 283.7 0 283.11 0.24 282.53 0.49 281.87 0.49L281.87 0.49Q281.28 0.49 280.68 0.27 280.09 0.05 279.62-0.44L279.62-0.44 256.43-24.66 256.43 0 250.08 0 250.08-32.3Q250.08-33.28 250.63-34.07 251.18-34.86 252.03-35.25L252.03-35.25Q252.94-35.62 253.89-35.44 254.84-35.25 255.52-34.55L255.52-34.55 278.72-10.35 278.72-35.01 285.07-35.01ZM319.95-17.65L319.95-17.65Q319.95-16.33 319.49-14.81 319.02-13.28 317.99-11.98 316.95-10.67 315.28-9.79 313.6-8.91 311.21-8.91L311.21-8.91 299.76-8.91 299.76-14.94 311.21-14.94Q312.5-14.94 313.21-15.73 313.92-16.53 313.92-17.7L313.92-17.7Q313.92-18.95 313.13-19.65 312.33-20.36 311.21-20.36L311.21-20.36 299.76-20.36Q298.47-20.36 297.76-19.57 297.05-18.77 297.05-17.6L297.05-17.6 297.05-8.74Q297.05-7.47 297.84-6.76 298.64-6.05 299.81-6.05L299.81-6.05 311.21-6.05 311.21 0 299.76 0Q298.44 0 296.92-0.46 295.39-0.93 294.08-1.97 292.78-3 291.9-4.68 291.02-6.35 291.02-8.74L291.02-8.74 291.02-17.65Q291.02-18.97 291.48-20.5 291.95-22.02 292.99-23.33 294.02-24.63 295.7-25.51 297.37-26.39 299.76-26.39L299.76-26.39 311.21-26.39Q312.53-26.39 314.05-25.93 315.58-25.46 316.89-24.43 318.19-23.39 319.07-21.72 319.95-20.04 319.95-17.65ZM344.61-26.39L353.35-26.39 341.95-13.94 354.79 0 346.05 0 337.6-9.2 329.15 0 320.39 0 333.21-13.99 321.85-26.39 330.54-26.39 337.55-18.75 344.61-26.39ZM386.62-26.39L386.62-3.2Q386.62-2.51 386.38-1.93 386.13-1.34 385.7-0.92 385.28-0.49 384.7-0.24 384.13 0 383.47 0L383.47 0 369.12 0Q367.94 0 366.61-0.27 365.28-0.54 363.99-1.14 362.69-1.73 361.49-2.65 360.28-3.56 359.37-4.87 358.47-6.18 357.92-7.89 357.37-9.59 357.37-11.74L357.37-11.74 357.37-26.39 363.72-26.39 363.72-11.74Q363.72-10.5 364.15-9.51 364.57-8.52 365.31-7.81 366.04-7.1 367.03-6.73 368.02-6.35 369.16-6.35L369.16-6.35 380.27-6.35 380.27-26.39 386.62-26.39ZM418.09-8.91L418.09-8.91Q418.09-7.28 417.67-5.97 417.26-4.66 416.57-3.67 415.89-2.69 414.99-1.99 414.08-1.29 413.1-0.85 412.11-0.42 411.09-0.21 410.08 0 409.18 0L409.18 0 391.99 0 391.99-6.35 409.13-6.35Q410.42-6.35 411.08-7.01 411.74-7.67 411.74-8.91L411.74-8.91Q411.62-11.45 409.18-11.45L409.18-11.45 399.34-11.45Q397.24-11.45 395.77-12.18 394.31-12.92 393.39-14.01 392.48-15.11 392.07-16.38 391.67-17.65 391.67-18.75L391.67-18.75Q391.67-20.87 392.43-22.33 393.19-23.78 394.33-24.68 395.48-25.59 396.82-25.99 398.17-26.39 399.34-26.39L399.34-26.39 414.94-26.39 414.94-20.04 399.39-20.04Q398.9-20.04 398.62-19.93 398.34-19.82 398.2-19.64 398.07-19.46 398.04-19.25 398.02-19.04 398.02-18.85L398.02-18.85Q398.04-18.46 398.17-18.24 398.29-18.02 398.47-17.92 398.65-17.82 398.89-17.81 399.12-17.8 399.34-17.8L399.34-17.8 409.18-17.8Q411.62-17.8 413.33-16.92 415.04-16.04 416.09-14.71 417.14-13.38 417.61-11.82 418.09-10.25 418.09-8.91Z" opacity="1" transform="matrix(1,0,0,1,0,0)" fill="#000000" class="wordmark-text-0" data-fill-palette-color="primary" id="text-0"></path></svg></g></svg></g><g transform="matrix(1,0,0,1,118.0462122750842,78.91454437043153)"><svg viewBox="0 0 159.42757544983158 19.19468058385891" height="19.19468058385891" width="159.42757544983158"><g transform="matrix(1,0,0,1,20.000000000000007,3.2)"><svg width="119.42757544983156" viewBox="3 -39.65 377.05 40.4" height="12.794680583858913" data-palette-color="#ffffff"><path d="M3-34.55L9.35-34.55 9.35-5.25 20.5-5.25 19.8 0 3 0 3-34.55ZM42.55-13.85Q42.55-13.4 42.4-11.3L42.4-11.3 28.75-11.3Q28.95-7.2 30.17-5.58 31.4-3.95 33.65-3.95L33.65-3.95Q35.2-3.95 36.45-4.48 37.7-5 39.15-6.15L39.15-6.15 41.7-2.65Q38.2 0.75 33.3 0.75L33.3 0.75Q28.1 0.75 25.32-2.85 22.55-6.45 22.55-13L22.55-13Q22.55-19.55 25.2-23.35 27.85-27.15 32.7-27.15L32.7-27.15Q37.35-27.15 39.95-23.78 42.55-20.4 42.55-13.85L42.55-13.85ZM36.55-15.3L36.55-15.65Q36.55-19.4 35.65-21.13 34.75-22.85 32.75-22.85L32.75-22.85Q30.9-22.85 29.92-21.18 28.95-19.5 28.75-15.3L28.75-15.3 36.55-15.3ZM63.75-6.4Q63.75-5.1 64.09-4.48 64.45-3.85 65.25-3.45L65.25-3.45 64 0.65Q61.95 0.4 60.72-0.45 59.5-1.3 58.9-3.05L58.9-3.05Q56.6 0.75 52.45 0.75L52.45 0.75Q49.15 0.75 47.2-1.48 45.25-3.7 45.25-7.4L45.25-7.4Q45.25-11.7 47.92-13.95 50.6-16.2 55.7-16.2L55.7-16.2 57.75-16.2 57.75-18.05Q57.75-20.55 56.87-21.58 56-22.6 54.05-22.6L54.05-22.6Q51.7-22.6 48.2-21.3L48.2-21.3 46.8-25.3Q48.8-26.2 50.95-26.68 53.1-27.15 55.05-27.15L55.05-27.15Q63.75-27.15 63.75-18.35L63.75-18.35 63.75-6.4ZM54.1-3.7Q56.5-3.7 57.75-7L57.75-7 57.75-12.55 56.3-12.55Q53.75-12.55 52.57-11.4 51.4-10.25 51.4-7.85L51.4-7.85Q51.4-5.8 52.1-4.75 52.8-3.7 54.1-3.7L54.1-3.7ZM81.19-27.1Q82.34-27.1 83.24-26.75L83.24-26.75 82.24-20.85Q81.24-21.1 80.39-21.1L80.39-21.1Q78.49-21.1 77.39-19.45 76.29-17.8 75.69-14.55L75.69-14.55 75.69 0 69.54 0 69.54-26.45 74.89-26.45 75.34-21.85Q77.19-27.1 81.19-27.1L81.19-27.1ZM98.44-27.15Q101.29-27.15 102.94-25.1 104.59-23.05 104.59-19.6L104.59-19.6 104.59 0 98.44 0 98.44-18.9Q98.44-20.8 97.92-21.63 97.39-22.45 96.39-22.45L96.39-22.45Q94.29-22.45 92.24-18.5L92.24-18.5 92.24 0 86.09 0 86.09-26.45 91.44-26.45 91.89-23Q93.24-25.1 94.77-26.13 96.29-27.15 98.44-27.15L98.44-27.15ZM142.04-26.45L147.74-26.45 143.19 0 135.69 0 132.74-20.85 129.84 0 122.39 0 117.74-26.45 123.69-26.45 126.39-4.6 129.74-26.45 135.99-26.45 139.19-4.6 142.04-26.45ZM151.23-26.45L157.38-26.45 157.38 0 151.23 0 151.23-26.45ZM154.28-39.65Q155.93-39.65 156.96-38.6 157.98-37.55 157.98-35.9L157.98-35.9Q157.98-34.3 156.96-33.25 155.93-32.2 154.28-32.2L154.28-32.2Q152.63-32.2 151.61-33.25 150.58-34.3 150.58-35.9L150.58-35.9Q150.58-37.55 151.61-38.6 152.63-39.65 154.28-39.65L154.28-39.65ZM174.23-5L176.38-1.2Q173.93 0.75 170.63 0.75L170.63 0.75Q167.18 0.75 165.38-1.23 163.58-3.2 163.58-6.6L163.58-6.6 163.58-22 160.48-22 160.48-26.45 163.58-26.45 163.58-32.3 169.73-33.05 169.73-26.45 174.73-26.45 174.13-22 169.73-22 169.73-6.6Q169.73-4.2 171.78-4.2L171.78-4.2Q172.43-4.2 172.93-4.38 173.43-4.55 174.23-5L174.23-5ZM191.28-27.15Q194.13-27.15 195.78-25.1 197.43-23.05 197.43-19.6L197.43-19.6 197.43 0 191.28 0 191.28-18.9Q191.28-20.8 190.75-21.63 190.23-22.45 189.23-22.45L189.23-22.45Q187.13-22.45 185.08-18.5L185.08-18.5 185.08 0 178.93 0 178.93-37 185.08-37.65 185.08-23.3Q186.33-25.25 187.8-26.2 189.28-27.15 191.28-27.15L191.28-27.15ZM212.38-27.15Q217.38-27.15 220.15-23.65 222.93-20.15 222.93-13.25L222.93-13.25Q222.93-6.65 220.13-2.95 217.33 0.75 212.38 0.75L212.38 0.75Q207.43 0.75 204.63-2.88 201.83-6.5 201.83-13.25L201.83-13.25Q201.83-19.95 204.63-23.55 207.43-27.15 212.38-27.15L212.38-27.15ZM212.38-22.5Q210.23-22.5 209.23-20.38 208.23-18.25 208.23-13.25L208.23-13.25Q208.23-8.2 209.23-6.08 210.23-3.95 212.38-3.95L212.38-3.95Q214.53-3.95 215.53-6.08 216.53-8.2 216.53-13.25L216.53-13.25Q216.53-18.3 215.53-20.4 214.53-22.5 212.38-22.5L212.38-22.5ZM245.62-26.45L245.62 0 240.27 0 239.97-3.35Q238.72-1.3 237.17-0.28 235.62 0.75 233.57 0.75L233.57 0.75Q230.67 0.75 229-1.3 227.32-3.35 227.32-6.65L227.32-6.65 227.32-26.45 233.47-26.45 233.47-7Q233.47-3.9 235.57-3.9L235.57-3.9Q236.77-3.9 237.72-4.83 238.67-5.75 239.47-7.45L239.47-7.45 239.47-26.45 245.62-26.45ZM262.47-5L264.62-1.2Q262.17 0.75 258.87 0.75L258.87 0.75Q255.42 0.75 253.62-1.23 251.82-3.2 251.82-6.6L251.82-6.6 251.82-22 248.72-22 248.72-26.45 251.82-26.45 251.82-32.3 257.97-33.05 257.97-26.45 262.97-26.45 262.37-22 257.97-22 257.97-6.6Q257.97-4.2 260.02-4.2L260.02-4.2Q260.67-4.2 261.17-4.38 261.67-4.55 262.47-5L262.47-5ZM282.62 0.75Q279.92 0.75 278.34-0.93 276.77-2.6 276.77-5.4L276.77-5.4 276.77-37.05 282.92-37.7 282.92-5.65Q282.92-5 283.22-4.6 283.52-4.2 284.12-4.2L284.12-4.2Q284.47-4.2 284.79-4.3 285.12-4.4 285.22-4.4L285.22-4.4 286.42-0.2Q284.72 0.75 282.62 0.75L282.62 0.75ZM289.46-26.45L295.61-26.45 295.61 0 289.46 0 289.46-26.45ZM292.51-39.65Q294.16-39.65 295.19-38.6 296.21-37.55 296.21-35.9L296.21-35.9Q296.21-34.3 295.19-33.25 294.16-32.2 292.51-32.2L292.51-32.2Q290.86-32.2 289.84-33.25 288.81-34.3 288.81-35.9L288.81-35.9Q288.81-37.55 289.84-38.6 290.86-39.65 292.51-39.65L292.51-39.65ZM324.96-27.15Q327.61-27.15 329.21-25.1 330.81-23.05 330.81-19.6L330.81-19.6 330.81 0 324.76 0 324.76-18.95Q324.76-20.85 324.26-21.68 323.76-22.5 322.81-22.5L322.81-22.5Q320.86-22.5 319.06-18.8L319.06-18.8 319.06 0 313.06 0 313.06-18.95Q313.06-22.5 311.16-22.5L311.16-22.5Q309.11-22.5 307.36-18.8L307.36-18.8 307.36 0 301.31 0 301.31-26.45 306.66-26.45 307.06-23.05Q309.66-27.15 313.31-27.15L313.31-27.15Q315.16-27.15 316.51-26 317.86-24.85 318.56-22.75L318.56-22.75Q321.21-27.15 324.96-27.15L324.96-27.15ZM336.31-26.45L342.46-26.45 342.46 0 336.31 0 336.31-26.45ZM339.36-39.65Q341.01-39.65 342.03-38.6 343.06-37.55 343.06-35.9L343.06-35.9Q343.06-34.3 342.03-33.25 341.01-32.2 339.36-32.2L339.36-32.2Q337.71-32.2 336.68-33.25 335.66-34.3 335.66-35.9L335.66-35.9Q335.66-37.55 336.68-38.6 337.71-39.65 339.36-39.65L339.36-39.65ZM359.31-5L361.46-1.2Q359.01 0.75 355.71 0.75L355.71 0.75Q352.26 0.75 350.46-1.23 348.66-3.2 348.66-6.6L348.66-6.6 348.66-22 345.56-22 345.56-26.45 348.66-26.45 348.66-32.3 354.81-33.05 354.81-26.45 359.81-26.45 359.21-22 354.81-22 354.81-6.6Q354.81-4.2 356.86-4.2L356.86-4.2Q357.51-4.2 358.01-4.38 358.51-4.55 359.31-5L359.31-5ZM371.35-27.15Q376.05-27.15 379.3-24.05L379.3-24.05 376.95-20.7Q375.55-21.7 374.3-22.2 373.05-22.7 371.75-22.7L371.75-22.7Q370.3-22.7 369.48-21.93 368.65-21.15 368.65-19.8L368.65-19.8Q368.65-18.45 369.58-17.63 370.5-16.8 373.3-15.7L373.3-15.7Q376.75-14.35 378.4-12.5 380.05-10.65 380.05-7.55L380.05-7.55Q380.05-3.7 377.35-1.48 374.65 0.75 370.5 0.75L370.5 0.75Q367.8 0.75 365.53-0.23 363.25-1.2 361.55-2.95L361.55-2.95 364.55-6.25Q367.35-3.8 370.25-3.8L370.25-3.8Q371.9-3.8 372.85-4.67 373.8-5.55 373.8-7.1L373.8-7.1Q373.8-8.25 373.4-8.97 373-9.7 372-10.33 371-10.95 369-11.7L369-11.7Q365.55-13.05 364.08-14.85 362.6-16.65 362.6-19.45L362.6-19.45Q362.6-22.8 364.98-24.98 367.35-27.15 371.35-27.15L371.35-27.15Z" opacity="1" transform="matrix(1,0,0,1,0,0)" fill="#ffffff" class="slogan-text-1" data-fill-palette-color="quaternary" id="text-1"></path></svg></g></svg></g></svg></g></svg></g><g></g></svg></g><defs></defs></svg><rect width="395.52" height="98.10922495429044" fill="none" stroke="none" visibility="hidden"></rect></g></svg></g></svg>